# xmcd CD database file
#
# Track frame offsets:
#	150
#	15675
#	32739
#
# Disc length: 671 seconds
#
# Revision: 0
# Processed by: cddbd v1.5.2PL0 Copyright (c) Steve Scherf et al.
# Submitted via: CD2WAV32(JP) R3.22
#
DISCID=1a029d03
DTITLE=ガガガSP - 夢のような日々
DYEAR=2006
DGENRE=JPop
TTITLE0=夢のような日々
TTITLE1=さんま焼けたか
TTITLE2=雪の街
EXTD=
EXTT0=
EXTT1=
EXTT2=
PLAYORDER=
